<?xml version="1.0" encoding="utf-8"?>
<!-- Generator: Adobe Illustrator 16.0.0, SVG Export Plug-In . SVG Version: 6.00 Build 0)  -->
<!DOCTYPE svg PUBLIC "-//W3C//DTD SVG 1.1//EN" "http://www.w3.org/Graphics/SVG/1.1/DTD/svg11.dtd">
<svg version="1.1"
	 id="svg2" inkscape:version="0.91 r13725" sodipodi:docname="CompassRose.svg" xmlns:svg="http://www.w3.org/2000/svg" xmlns:sodipodi="http://sodipodi.sourceforge.net/DTD/sodipodi-0.dtd" xmlns:dc="http://purl.org/dc/elements/1.1/" xmlns:cc="http://creativecommons.org/ns#" xmlns:inkscape="http://www.inkscape.org/namespaces/inkscape" xmlns:rdf="http://www.w3.org/1999/02/22-rdf-syntax-ns#"
	 xmlns="http://www.w3.org/2000/svg" xmlns:xlink="http://www.w3.org/1999/xlink" x="0px" y="0px" width="401.293px"
	 height="401.293px" viewBox="0 0 401.293 401.293" enable-background="new 0 0 401.293 401.293" xml:space="preserve">
<defs>
	
	<inkscape:path-effect  id="path-effect4491" effect="spiro" is_visible="true"></inkscape:path-effect>
	<inkscape:path-effect  id="path-effect4140" effect="spiro" is_visible="true"></inkscape:path-effect>
	<inkscape:path-effect  id="path-effect4140-4" effect="spiro" is_visible="true"></inkscape:path-effect>
	<inkscape:path-effect  id="path-effect4140-8" effect="spiro" is_visible="true"></inkscape:path-effect>
	<inkscape:path-effect  id="path-effect4140-4-8" effect="spiro" is_visible="true"></inkscape:path-effect>
	<inkscape:path-effect  id="path-effect4140-9" effect="spiro" is_visible="true"></inkscape:path-effect>
	<inkscape:path-effect  id="path-effect4140-4-2" effect="spiro" is_visible="true"></inkscape:path-effect>
	<inkscape:path-effect  id="path-effect4140-8-2" effect="spiro" is_visible="true"></inkscape:path-effect>
	<inkscape:path-effect  id="path-effect4140-4-8-7" effect="spiro" is_visible="true"></inkscape:path-effect>
	<inkscape:path-effect  id="path-effect4140-6" effect="spiro" is_visible="true"></inkscape:path-effect>
	<inkscape:path-effect  id="path-effect4140-4-4" effect="spiro" is_visible="true"></inkscape:path-effect>
	<inkscape:path-effect  id="path-effect4140-8-0" effect="spiro" is_visible="true"></inkscape:path-effect>
	<inkscape:path-effect  id="path-effect4140-4-8-6" effect="spiro" is_visible="true"></inkscape:path-effect>
	<inkscape:path-effect  id="path-effect4140-9-0" effect="spiro" is_visible="true"></inkscape:path-effect>
	<inkscape:path-effect  id="path-effect4140-4-2-8" effect="spiro" is_visible="true"></inkscape:path-effect>
	<inkscape:path-effect  id="path-effect4140-8-2-1" effect="spiro" is_visible="true"></inkscape:path-effect>
	<inkscape:path-effect  id="path-effect4140-4-8-7-3" effect="spiro" is_visible="true"></inkscape:path-effect>
	<inkscape:path-effect  id="path-effect4491-6" effect="spiro" is_visible="true"></inkscape:path-effect>
	<inkscape:path-effect  id="path-effect4491-3" effect="spiro" is_visible="true"></inkscape:path-effect>
	<inkscape:path-effect  id="path-effect4491-6-5" effect="spiro" is_visible="true"></inkscape:path-effect>
	<inkscape:path-effect  id="path-effect4491-7" effect="spiro" is_visible="true"></inkscape:path-effect>
	<inkscape:path-effect  id="path-effect4491-6-7" effect="spiro" is_visible="true"></inkscape:path-effect>
	<inkscape:path-effect  id="path-effect4491-3-9" effect="spiro" is_visible="true"></inkscape:path-effect>
	<inkscape:path-effect  id="path-effect4491-6-5-8" effect="spiro" is_visible="true"></inkscape:path-effect>
	<inkscape:path-effect  id="path-effect4491-9" effect="spiro" is_visible="true"></inkscape:path-effect>
	<inkscape:path-effect  id="path-effect4491-6-2" effect="spiro" is_visible="true"></inkscape:path-effect>
	<inkscape:path-effect  id="path-effect4491-3-2" effect="spiro" is_visible="true"></inkscape:path-effect>
	<inkscape:path-effect  id="path-effect4491-6-5-7" effect="spiro" is_visible="true"></inkscape:path-effect>
	<inkscape:path-effect  id="path-effect4491-7-3" effect="spiro" is_visible="true"></inkscape:path-effect>
	<inkscape:path-effect  id="path-effect4491-6-7-4" effect="spiro" is_visible="true"></inkscape:path-effect>
	<inkscape:path-effect  id="path-effect4491-3-9-3" effect="spiro" is_visible="true"></inkscape:path-effect>
	<inkscape:path-effect  id="path-effect4491-6-5-8-4" effect="spiro" is_visible="true"></inkscape:path-effect>
	<inkscape:path-effect  id="path-effect4491-98" effect="spiro" is_visible="true"></inkscape:path-effect>
	<inkscape:path-effect  id="path-effect4491-6-0" effect="spiro" is_visible="true"></inkscape:path-effect>
	<inkscape:path-effect  id="path-effect4491-3-97" effect="spiro" is_visible="true"></inkscape:path-effect>
	<inkscape:path-effect  id="path-effect4491-6-5-4" effect="spiro" is_visible="true"></inkscape:path-effect>
	<inkscape:path-effect  id="path-effect4491-7-1" effect="spiro" is_visible="true"></inkscape:path-effect>
	<inkscape:path-effect  id="path-effect4491-6-7-43" effect="spiro" is_visible="true"></inkscape:path-effect>
	<inkscape:path-effect  id="path-effect4491-3-9-9" effect="spiro" is_visible="true"></inkscape:path-effect>
	<inkscape:path-effect  id="path-effect4491-6-5-8-3" effect="spiro" is_visible="true"></inkscape:path-effect>
	<inkscape:path-effect  id="path-effect4491-98-3" effect="spiro" is_visible="true"></inkscape:path-effect>
	<inkscape:path-effect  id="path-effect4491-6-0-1" effect="spiro" is_visible="true"></inkscape:path-effect>
	<inkscape:path-effect  id="path-effect4491-3-97-9" effect="spiro" is_visible="true"></inkscape:path-effect>
	<inkscape:path-effect  id="path-effect4491-6-5-4-9" effect="spiro" is_visible="true"></inkscape:path-effect>
	<inkscape:path-effect  id="path-effect4491-7-1-4" effect="spiro" is_visible="true"></inkscape:path-effect>
	<inkscape:path-effect  id="path-effect4491-6-7-43-6" effect="spiro" is_visible="true"></inkscape:path-effect>
	<inkscape:path-effect  id="path-effect4491-3-9-9-7" effect="spiro" is_visible="true"></inkscape:path-effect>
	<inkscape:path-effect  id="path-effect4491-6-5-8-3-7" effect="spiro" is_visible="true"></inkscape:path-effect>
</defs>
<sodipodi:namedview  units="px" inkscape:document-units="px" inkscape:pageshadow="2" inkscape:pageopacity="0.0" inkscape:window-maximized="1" inkscape:window-y="-8" inkscape:window-x="-8" inkscape:window-height="837" inkscape:window-width="1600" fit-margin-bottom="0" fit-margin-right="0" inkscape:current-layer="layer1" borderopacity="1.0" fit-margin-left="0" id="base" fit-margin-top="0" showgrid="true" inkscape:cx="200.6298" bordercolor="#666666" inkscape:zoom="1" inkscape:cy="197.63978" pagecolor="#ffffff">
	</sodipodi:namedview>
<path id="path4489-0" fill="#003F87" stroke="#000000" d="M166.143,118.324l16.791,75.786l17.625,7.3L166.143,118.324
	L166.143,118.324z"/>
<path id="path4489-4-1" fill="#FFFFFF" stroke="#000000" d="M166.127,118.331l41.717,65.461l-7.301,17.625L166.127,118.331
	L166.127,118.331z"/>
<path id="path4489-9-8" fill="#003F87" stroke="#000000" d="M235.151,283.97l-16.79-75.786l-17.625-7.301L235.151,283.97z"/>
<path id="path4489-4-0-5" fill="#FFFFFF" stroke="#000000" d="M235.167,283.963l-41.716-65.461l7.301-17.626L235.167,283.963z"/>
<path id="path4489-8-3" fill="#003F87" stroke="#000000" d="M283.97,166.143l-75.786,16.791l-7.301,17.625L283.97,166.143z"/>
<path id="path4489-4-00-8" fill="#FFFFFF" stroke="#000000" d="M283.963,166.127l-65.461,41.717l-17.626-7.301L283.963,166.127z"/>
<path id="path4489-9-3-3" fill="#003F87" stroke="#000000" d="M117.324,235.151l75.786-16.79l7.301-17.625L117.324,235.151z"/>
<path id="path4489-4-0-2-2" fill="#FFFFFF" stroke="#000000" d="M117.331,235.167l65.461-41.716l17.625,7.3L117.331,235.167z"/>
<path id="path4489-0-8" fill="#003F87" stroke="#000000" d="M117.331,166.127l65.461,41.717l17.625-7.301L117.331,166.127
	L117.331,166.127z"/>
<path id="path4489-4-1-9" fill="#FFFFFF" stroke="#000000" d="M117.324,166.143l75.786,16.791l7.301,17.625L117.324,166.143
	L117.324,166.143z"/>
<path id="path4489-9-8-2" fill="#003F87" stroke="#000000" d="M283.963,236.167l-65.461-41.716l-17.626,7.301L283.963,236.167z"/>
<path id="path4489-4-0-5-2" fill="#FFFFFF" stroke="#000000" d="M283.97,236.151l-75.786-16.79l-7.301-17.625L283.97,236.151z"/>
<path id="path4489-8-3-1" fill="#003F87" stroke="#000000" d="M235.167,117.331l-41.716,65.461l7.3,17.625L235.167,117.331z"/>
<path id="path4489-4-00-8-9" fill="#FFFFFF" stroke="#000000" d="M235.151,117.324l-16.79,75.786l-17.625,7.301L235.151,117.324z"/>
<path id="path4489-9-3-3-3" fill="#003F87" stroke="#000000" d="M166.127,283.963l41.717-65.461l-7.301-17.626L166.127,283.963z"/>
<path id="path4489-4-0-2-2-5" fill="#FFFFFF" stroke="#000000" d="M166.143,283.97l16.791-75.786l17.625-7.301L166.143,283.97z"/>
<path id="path4688-3" inkscape:connector-curvature="0" fill="#003F87" d="M200.666,37.237c-89.939,0-162.85,72.91-162.85,162.85
	c0,89.939,72.91,162.849,162.85,162.849c89.939,0,162.849-72.91,162.85-162.849C363.515,110.147,290.605,37.237,200.666,37.237z
	 M200.666,65.587c74.282,0,134.5,60.218,134.5,134.5c0,74.283-60.219,134.5-134.5,134.5l0,0c-74.283,0-134.5-60.217-134.5-134.5
	C66.166,125.805,126.383,65.587,200.666,65.587z"/>
<path id="path4489-6" fill="#003F87" stroke="#000000" d="M285.721,115.589l-84.829,59.38v25.449L285.721,115.589L285.721,115.589z"
	/>
<path id="path4489-4-9" fill="#FFFFFF" stroke="#000000" d="M285.706,115.573l-59.381,84.828h-25.448L285.706,115.573
	L285.706,115.573z"/>
<path id="path4489-9-2" fill="#003F87" stroke="#000000" d="M115.573,285.706l84.828-59.381v-25.448L115.573,285.706z"/>
<path id="path4489-4-0-26" fill="#FFFFFF" stroke="#000000" d="M115.589,285.721l59.379-84.829h25.449L115.589,285.721z"/>
<path id="path4489-8-0" fill="#003F87" stroke="#000000" d="M285.706,285.721l-59.381-84.829h-25.448L285.706,285.721z"/>
<path id="path4489-4-00-4" fill="#FFFFFF" stroke="#000000" d="M285.721,285.706l-84.829-59.381v-25.448L285.721,285.706z"/>
<path id="path4489-9-3-0" fill="#003F87" stroke="#000000" d="M115.589,115.573l59.379,84.828h25.449L115.589,115.573
	L115.589,115.573z"/>
<path id="path4489-4-0-2-6" fill="#FFFFFF" stroke="#000000" d="M115.573,115.589l84.828,59.38v25.449L115.573,115.589
	L115.573,115.589z"/>
<path id="path4489" fill="#003F87" d="M200.666,0.087l-30,170l30,30V0.087L200.666,0.087z"/>
<path id="path4489-4" fill="#FFFFFF" d="M200.628,0.087l30,170l-30,30V0.087L200.628,0.087z"/>
<path id="path4489-9" fill="#003F87" d="M200.628,401.208l30-170l-30-30V401.208z"/>
<path id="path4489-4-0" fill="#FFFFFF" d="M200.666,401.208l-30-170l30-30V401.208z"/>
<path id="path4489-8" fill="#003F87" d="M401.208,200.666l-170-30l-30,30H401.208z"/>
<path id="path4489-4-00" fill="#FFFFFF" d="M401.208,200.628l-170,30l-30-30H401.208z"/>
<path id="path4489-9-3" fill="#003F87" d="M0.087,200.628l170,30l30-30H0.087z"/>
<path id="path4489-4-0-2" fill="#FFFFFF" d="M0.087,200.666l170-30l30,30H0.087z"/>
</svg>
